<?xml version="1.0" standalone="no"?>
<!DOCTYPE svg PUBLIC "-//W3C//DTD SVG 20010904//EN"
 "http://www.w3.org/TR/2001/REC-SVG-20010904/DTD/svg10.dtd">
<svg version="1.0" xmlns="http://www.w3.org/2000/svg"
 width="1000.000000pt" height="1080.000000pt" viewBox="0 0 1000.000000 1080.000000"
 preserveAspectRatio="xMidYMid meet">

<g transform="translate(0.000000,1080.000000) scale(0.100000,-0.100000)"
fill="#000000" stroke="none">
<path d="M4540 9940 c-221 -47 -379 -274 -340 -490 13 -74 54 -159 102 -214
l34 -39 -53 -271 c-28 -149 -52 -277 -53 -283 0 -10 30 -13 119 -13 l120 0 10
53 c40 200 101 546 101 574 0 29 -11 46 -59 96 -32 34 -66 76 -75 94 -45 88 6
206 106 248 47 19 174 20 219 1 67 -28 109 -92 109 -166 0 -63 -27 -114 -91
-173 -57 -53 -59 -57 -59 -104 1 -26 24 -176 53 -333 l53 -285 122 -3 122 -3
-6 28 c-3 15 -27 143 -53 283 l-48 255 40 49 c79 101 113 203 104 315 -13 169
-112 300 -275 361 -65 25 -227 35 -302 20z"/>
<path d="M3595 8505 l-25 -24 0 -435 0 -435 26 -20 c27 -21 30 -21 1064 -21
l1037 0 24 26 24 26 0 430 0 430 -28 24 -28 24 -1035 0 -1035 0 -24 -25z"/>
<path d="M2010 8271 c-93 -29 -177 -101 -219 -190 l-26 -56 0 -3405 0 -3405
28 -60 c46 -99 117 -160 219 -189 48 -15 317 -16 2668 -14 l2615 3 56 28 c67
32 142 109 172 175 l22 47 3 1884 2 1883 -27 -6 c-16 -4 -84 -9 -153 -12 -99
-4 -143 -1 -212 14 l-88 18 0 -1183 0 -1184 -571 -589 -572 -590 -1838 0
-1839 0 0 3180 0 3180 610 0 610 0 0 240 0 240 -717 -1 c-395 0 -729 -4 -743
-8z"/>
<path d="M5850 8040 l0 -240 608 -2 607 -3 3 -464 2 -463 23 6 c72 20 178 28
310 24 l148 -5 -3 566 -3 566 -33 67 c-36 73 -87 124 -161 160 l-46 23 -727 3
-728 3 0 -241z"/>
<path d="M7255 6800 c-301 -32 -568 -220 -700 -493 -69 -145 -80 -196 -80
-387 0 -160 1 -168 33 -260 52 -150 103 -231 217 -345 70 -70 123 -113 178
-144 413 -232 918 -111 1175 282 98 150 137 288 136 482 -1 149 -21 241 -79
364 -64 135 -185 276 -308 360 -156 106 -379 161 -572 141z m611 -424 c62 -62
64 -58 -212 -594 -148 -286 -258 -488 -275 -504 -38 -36 -103 -39 -144 -6 -20
16 -85 138 -223 418 -107 217 -198 407 -202 422 -20 68 39 148 108 148 68 0
98 -29 157 -153 29 -62 93 -195 142 -296 l90 -185 187 367 c128 250 197 375
218 392 22 19 41 25 75 25 38 0 50 -5 79 -34z"/>
<path d="M2977 6699 c-109 -26 -209 -109 -260 -217 -28 -60 -32 -77 -32 -157
0 -80 4 -97 32 -157 40 -85 106 -151 191 -191 60 -28 77 -32 157 -32 80 0 97
4 155 31 113 53 181 131 214 243 81 278 -175 547 -457 480z"/>
<path d="M3664 6526 c-3 -7 -4 -38 -2 -67 l3 -54 1410 -3 1411 -2 42 64 c23
35 42 67 42 70 0 3 -653 6 -1450 6 -1219 0 -1451 -2 -1456 -14z"/>
<path d="M3660 6175 l0 -65 1362 2 1361 3 13 55 c7 30 13 58 14 63 0 4 -619 7
-1375 7 l-1375 0 0 -65z"/>
<path d="M2943 5412 c-181 -65 -291 -253 -254 -434 75 -368 564 -428 724 -90
29 60 32 76 32 157 -1 114 -26 183 -96 260 -74 81 -156 118 -268 122 -65 3
-99 -1 -138 -15z"/>
<path d="M3660 5195 l0 -65 1515 0 1515 0 0 33 c0 24 -9 42 -33 65 l-33 32
-1482 0 -1482 0 0 -65z"/>
<path d="M3664 4956 c-3 -7 -4 -38 -2 -67 l3 -54 1513 -3 1512 -2 0 70 0 70
-1510 0 c-1269 0 -1511 -2 -1516 -14z"/>
<path d="M2941 4150 c-107 -39 -174 -102 -225 -210 -27 -58 -31 -75 -31 -155
0 -80 4 -97 32 -157 151 -319 608 -293 713 41 59 188 -29 386 -208 469 -78 36
-203 41 -281 12z"/>
<path d="M3662 3933 l3 -68 1513 -3 1512 -2 0 70 0 70 -1515 0 -1516 0 3 -67z"/>
<path d="M3667 3703 c-4 -3 -7 -35 -7 -70 l0 -63 1515 0 1515 0 0 70 0 70
-1508 0 c-830 0 -1512 -3 -1515 -7z"/>
<path d="M2938 2871 c-151 -61 -240 -178 -255 -335 -22 -241 207 -451 444
-407 131 24 230 99 286 219 28 60 32 77 32 157 -1 116 -26 184 -100 263 -79
85 -145 115 -265 119 -75 3 -105 -1 -142 -16z"/>
<path d="M3660 2655 l0 -65 1060 0 1060 0 0 65 0 65 -1060 0 -1060 0 0 -65z"/>
<path d="M5900 2122 l0 -539 138 141 c76 78 275 283 442 456 167 173 340 352
384 398 l81 82 -523 0 -522 0 0 -538z"/>
<path d="M3662 2363 l3 -68 1055 0 1055 0 3 68 3 67 -1061 0 -1061 0 3 -67z"/>
</g>
</svg>
