<?xml version="1.0" standalone="no"?>
<!DOCTYPE svg PUBLIC "-//W3C//DTD SVG 20010904//EN"
 "http://www.w3.org/TR/2001/REC-SVG-20010904/DTD/svg10.dtd">
<svg version="1.0" xmlns="http://www.w3.org/2000/svg"
 width="570.000000pt" height="570.000000pt" viewBox="0 0 570.000000 570.000000"
 preserveAspectRatio="xMidYMid meet">

<g transform="translate(0.000000,570.000000) scale(0.100000,-0.100000)"
fill="#000000" stroke="none">
<path d="M1686 5681 c-69 -46 -82 -123 -52 -316 32 -204 78 -326 178 -473 68
-99 234 -252 258 -237 6 4 9 1 8 -6 -4 -16 116 -80 210 -112 128 -43 211 -59
338 -64 100 -5 126 -3 152 11 19 10 30 21 26 28 -4 6 -3 8 4 4 6 -3 18 4 26
16 37 52 13 308 -45 483 -34 102 -110 251 -127 248 -6 -2 -9 4 -5 13 6 17
-185 212 -235 238 -17 9 -48 27 -68 41 -20 14 -40 22 -45 19 -5 -3 -9 -1 -9 5
0 8 -40 27 -48 22 -1 -1 -16 6 -32 14 -137 71 -465 111 -534 66z"/>
<path d="M3420 5437 c-14 -8 -24 -19 -23 -25 2 -6 -3 -9 -11 -6 -16 6 -74 -80
-170 -253 -39 -71 -65 -127 -60 -134 4 -7 3 -9 -3 -6 -20 12 -234 -444 -398
-848 -16 -38 -33 -74 -37 -80 -10 -11 -79 -14 -72 -4 4 8 -187 73 -291 98
-310 76 -676 39 -953 -97 -114 -56 -224 -130 -216 -145 4 -6 4 -9 -1 -5 -11
11 -45 -10 -45 -28 0 -8 -4 -13 -9 -10 -11 7 -43 -28 -34 -38 4 -4 -1 -4 -12
0 -15 6 -17 4 -12 -10 4 -9 3 -15 -3 -11 -11 7 -51 -35 -44 -46 3 -5 -2 -6
-10 -3 -9 3 -16 2 -16 -4 0 -5 -10 -20 -23 -33 -55 -57 -119 -148 -111 -160 4
-7 3 -10 -3 -6 -9 6 -103 -148 -103 -169 0 -5 -9 -28 -20 -49 -30 -58 -75
-213 -102 -345 -20 -101 -23 -143 -23 -345 1 -245 14 -374 60 -600 67 -325
189 -677 330 -950 119 -230 342 -564 367 -549 6 4 8 3 5 -3 -9 -14 122 -155
135 -146 6 3 8 2 5 -4 -4 -6 8 -23 26 -40 161 -146 327 -247 517 -314 l95 -34
220 0 220 0 131 43 131 43 52 -21 c131 -51 316 -90 437 -90 140 0 339 47 495
118 109 50 336 213 323 233 -3 5 0 8 8 7 7 -2 12 4 10 12 -2 8 0 12 4 8 7 -8
67 37 62 46 -2 3 6 12 17 21 11 9 14 13 6 9 -9 -5 -12 -3 -7 5 4 6 11 9 16 6
12 -8 151 158 145 173 -3 7 -1 11 3 8 17 -11 168 216 156 235 -4 7 -3 9 4 5 6
-4 37 43 78 121 185 349 304 704 386 1153 32 172 32 180 33 485 0 287 -2 318
-23 420 -29 137 -102 356 -115 348 -6 -3 -7 -1 -3 6 17 26 -183 359 -207 344
-5 -3 -7 -1 -4 4 8 13 -17 36 -27 26 -4 -4 -4 0 -1 9 5 12 -19 38 -85 96 -50
43 -103 85 -118 93 -15 8 -35 21 -44 29 -30 27 -182 98 -274 129 -139 46 -257
63 -439 63 -169 0 -223 -7 -402 -49 -70 -16 -110 -30 -106 -36 4 -6 0 -8 -11
-4 -10 4 -61 -10 -124 -33 -58 -22 -109 -37 -113 -33 -4 5 19 48 52 96 61 91
67 103 47 91 -7 -4 -8 -3 -4 5 4 6 11 9 16 6 4 -3 22 17 39 45 17 27 61 89 97
137 37 49 67 93 67 100 0 7 4 10 8 8 4 -3 23 15 43 39 37 45 45 63 24 50 -7
-4 -8 -3 -4 5 4 6 11 9 15 7 12 -8 84 71 76 83 -3 6 -2 10 3 9 5 -2 52 38 103
87 52 50 111 102 131 117 20 15 42 34 50 41 7 7 52 45 101 85 141 118 144 139
34 191 -34 16 -116 55 -182 86 -66 32 -130 58 -142 59 -11 0 -19 4 -17 8 5 7
-60 28 -86 28 -8 0 -26 -6 -40 -13z"/>
</g>
</svg>
