<?xml version="1.0" standalone="no"?>
<!DOCTYPE svg PUBLIC "-//W3C//DTD SVG 20010904//EN"
 "http://www.w3.org/TR/2001/REC-SVG-20010904/DTD/svg10.dtd">
<svg version="1.0" xmlns="http://www.w3.org/2000/svg"
 width="600.000000pt" height="564.000000pt" viewBox="0 0 600.000000 564.000000"
 preserveAspectRatio="xMidYMid meet">

<g transform="translate(0.000000,564.000000) scale(0.100000,-0.100000)"
fill="#000000" stroke="none">
<path d="M5487 5243 c-26 -49 -62 -161 -55 -169 7 -6 77 146 84 184 4 17 4 32
2 32 -3 0 -16 -21 -31 -47z"/>
<path d="M5387 5130 c-4 -14 -14 -57 -22 -96 -33 -162 -79 -207 -55 -55 13 86
7 151 -12 118 -5 -10 -14 -64 -19 -120 -6 -56 -15 -119 -20 -140 -11 -42 -63
-107 -75 -94 -4 4 -2 33 4 65 25 110 33 176 26 202 -6 24 -7 23 -21 -15 -7
-22 -23 -101 -34 -175 -20 -131 -47 -217 -75 -241 -19 -16 -18 37 1 156 8 50
15 107 15 129 0 35 -2 37 -17 25 -31 -26 -53 -97 -64 -206 -12 -132 -31 -203
-64 -240 l-24 -28 0 65 c0 36 6 112 14 170 19 139 19 166 1 151 -35 -29 -57
-111 -70 -264 -15 -168 -35 -233 -87 -283 l-31 -29 6 25 c14 63 46 326 46 382
l0 61 -25 -23 c-53 -50 -67 -99 -76 -273 -12 -196 -26 -254 -79 -310 -24 -25
-40 -36 -40 -27 0 8 9 67 20 130 25 141 35 281 26 344 -6 41 -10 46 -22 35
-20 -17 -49 -74 -63 -125 -6 -22 -15 -112 -21 -200 -10 -171 -24 -233 -64
-295 -35 -52 -50 -51 -43 4 7 54 35 362 40 445 4 70 -5 77 -45 35 -60 -65 -68
-101 -72 -333 -4 -199 -16 -253 -73 -320 -19 -22 -38 -40 -42 -40 -9 0 -8 9
14 272 19 219 20 401 3 396 -21 -7 -77 -122 -93 -190 -8 -37 -15 -109 -15
-160 0 -51 -5 -147 -10 -212 -8 -102 -13 -128 -40 -182 -28 -58 -87 -124 -111
-124 -6 0 -8 11 -5 28 28 128 48 322 53 512 l5 215 -36 -49 c-70 -97 -100
-215 -116 -458 -12 -196 -24 -267 -55 -328 -25 -49 -50 -76 -58 -63 -13 21
-27 137 -27 227 0 56 9 187 20 291 11 105 20 217 20 250 l-1 60 -21 -25 c-35
-41 -77 -141 -103 -245 -22 -84 -25 -120 -25 -264 -1 -282 -27 -375 -124 -435
-68 -43 -73 -31 -42 105 33 153 44 277 52 574 l6 250 -27 -38 c-37 -53 -69
-129 -106 -250 -30 -98 -32 -112 -39 -342 -9 -259 -17 -305 -66 -377 -22 -32
-96 -88 -115 -88 -3 0 5 50 17 111 13 60 28 170 34 242 12 147 31 619 26 625
-8 7 -69 -92 -92 -150 -14 -33 -36 -101 -50 -151 -24 -84 -26 -111 -30 -327
-3 -258 -15 -325 -69 -395 -24 -33 -121 -92 -132 -82 -2 3 0 22 6 44 42 155
60 336 67 683 l6 275 -25 -25 c-42 -41 -96 -139 -123 -224 -37 -117 -52 -226
-69 -491 -21 -333 -24 -351 -76 -397 -38 -35 -112 -68 -124 -56 -3 3 -1 18 5
34 5 16 19 83 31 149 17 97 22 173 26 395 2 151 0 334 -4 405 l-8 130 -47 -74
c-124 -193 -167 -429 -169 -926 0 -93 -4 -192 -8 -219 -9 -56 -29 -76 -123
-126 -68 -36 -66 -39 -43 83 45 238 57 462 41 822 -6 161 -5 213 6 267 17 81
10 78 -57 -22 -91 -137 -131 -266 -166 -540 -19 -152 -20 -181 -10 -361 14
-245 5 -336 -42 -429 -23 -46 -46 -75 -82 -102 -27 -21 -53 -38 -56 -38 -4 0
5 28 18 62 66 164 68 402 7 863 -19 143 -23 384 -6 439 6 22 10 42 8 44 -10
10 -102 -122 -141 -203 -104 -216 -122 -425 -79 -910 16 -188 18 -444 4 -497
-6 -21 -25 -57 -43 -80 -38 -50 -126 -113 -139 -100 -5 5 -4 38 4 78 8 44 13
148 12 289 0 234 -12 342 -74 689 -27 149 -28 176 -25 369 1 114 0 207 -4 207
-10 -1 -77 -122 -99 -180 -27 -75 -68 -265 -81 -375 -30 -267 -24 -463 31
-1032 29 -309 31 -335 16 -365 -16 -34 -205 -276 -338 -433 -150 -178 -253
-322 -338 -473 -37 -64 -82 -158 -82 -168 0 -2 20 -4 44 -4 43 0 44 1 102 83
33 45 91 134 129 196 97 157 216 303 371 457 73 72 140 146 149 165 9 19 48
64 87 100 l70 67 109 -88 c383 -311 623 -431 891 -447 93 -6 178 4 256 28 l32
11 -62 40 c-35 22 -110 86 -168 142 -58 56 -136 127 -175 158 -197 157 -465
293 -668 338 -45 11 -57 17 -52 29 12 30 116 168 160 211 l44 43 168 -169
c264 -267 430 -375 647 -421 81 -17 224 -13 295 9 l45 14 -85 56 c-46 31 -145
112 -219 180 -275 250 -346 305 -479 371 -47 24 -117 51 -156 61 -38 10 -76
20 -83 22 -17 5 -2 32 46 86 85 94 150 91 283 -13 30 -24 121 -101 202 -171
271 -233 396 -298 577 -298 52 0 101 4 107 8 9 5 -53 73 -190 210 -211 210
-297 286 -409 359 -72 47 -224 123 -245 123 -24 0 -13 19 50 84 37 40 71 66
83 66 34 0 191 -111 338 -240 216 -188 321 -255 448 -285 67 -16 178 -20 178
-7 0 9 -279 286 -464 460 -124 117 -144 132 -190 142 -82 19 -86 20 -102 45
-12 18 -13 28 -5 44 15 27 86 68 133 76 36 7 39 5 135 -92 54 -54 149 -151
211 -215 121 -126 203 -184 301 -212 52 -15 181 -22 181 -10 0 3 -14 17 -30
31 -17 14 -99 102 -184 197 -208 233 -277 295 -422 382 -18 11 -18 13 6 39 51
55 102 67 168 39 49 -20 90 -60 175 -174 148 -196 259 -291 385 -330 36 -11
67 -18 70 -16 6 7 -52 107 -122 210 -67 98 -223 267 -321 347 -36 29 -65 56
-65 61 0 17 67 48 105 48 56 0 94 -25 156 -100 156 -191 243 -272 360 -331 60
-30 146 -55 155 -46 8 7 -46 102 -105 187 -61 89 -233 255 -319 310 -39 25
-71 48 -71 52 -2 15 69 59 103 65 60 9 85 -5 190 -106 204 -197 291 -251 419
-259 43 -3 77 -1 77 5 0 5 -71 79 -158 165 -150 148 -280 250 -339 264 -29 8
-29 15 0 41 37 34 68 46 121 46 68 1 92 -14 221 -132 135 -125 200 -161 291
-161 35 0 65 4 68 9 6 9 -88 117 -179 205 -73 70 -155 121 -230 141 -68 19
-75 27 -49 63 32 47 116 66 179 42 15 -6 70 -44 123 -86 154 -122 249 -159
341 -134 l43 11 -104 69 c-57 38 -139 101 -182 141 -43 39 -98 83 -121 98 -48
31 -47 49 5 76 65 34 112 19 268 -88 118 -81 163 -96 228 -78 73 20 70 24 -72
102 -128 70 -232 147 -255 190 -15 28 -3 55 31 69 45 19 93 6 193 -51 139 -79
194 -93 266 -68 42 15 39 23 -11 38 -102 30 -318 171 -326 213 -4 23 35 56 80
69 35 9 50 6 166 -42 99 -40 139 -52 182 -52 54 0 100 15 100 33 0 16 -106 60
-171 71 -118 18 -179 49 -179 90 0 77 88 98 243 58 93 -24 158 -22 201 6 38
25 24 31 -125 51 -68 9 -138 18 -154 20 -25 3 -31 9 -30 27 4 74 44 91 215 91
115 1 140 4 167 20 54 33 30 39 -118 32 -127 -6 -139 -5 -139 10 0 34 73 89
151 113 41 12 94 29 118 38 48 17 110 67 99 79 -13 12 -111 -15 -187 -51 -77
-37 -84 -33 -48 30 19 35 38 48 141 100 123 61 174 105 124 105 -15 0 -55 -22
-93 -50 -119 -88 -107 -22 19 109 62 64 66 70 33 50 -30 -17 -41 -19 -47 -9
-4 7 -13 10 -18 6 -7 -4 -12 12 -14 46 -3 42 -5 48 -11 28z"/>
</g>
</svg>
